<svg id="Layer_1" enable-background="new 0 0 128 128" height="512" viewBox="0 0 128 128" width="512" xmlns="http://www.w3.org/2000/svg"><path d="m114.628 36.997c-.069-.262-.239-.49-.48-.63l-23.789-13.813c-.005-.003-23.79-13.811-23.79-13.811-.321-.187-.717-.187-1.038 0l-23.78 13.809c-.003.002-23.795 13.815-23.795 13.815-.001 0-.001 0-.002.001-.001 0-.001.001-.001.001l-.002.001c-.04.023-.072.055-.108.083-.035.027-.075.05-.106.082-.057.058-.105.123-.147.192-.004.007-.011.013-.016.02-.039.067-.066.139-.089.213-.004.012-.011.022-.014.034-.023.087-.036.178-.036.27 0 0 .002 28.797.002 28.803v28.773c0 .369.196.71.515.894l47.579 27.626h.001c.001 0 .001.001.002.002.055.032.114.05.173.071.026.009.051.025.078.032.087.023.176.035.266.035s.179-.012.266-.035c.027-.007.052-.023.078-.032.059-.021.118-.04.173-.071.001 0 .001-.001.002-.002h.001l47.579-27.622c.319-.185.515-.526.515-.894v-57.574c0-.093-.013-.185-.037-.273z" fill="#e6e7e8"/><path d="m14.336 61.915v28.788l23.79 13.814v-28.788z" fill="#ffd7e5"/><path d="m61.914 5.5-23.79 13.814 23.79 13.814 23.789-13.814z" fill="#fa759e"/><path d="m38.124 19.312-23.79 13.814 23.79 13.814 23.79-13.814z" fill="#fa759e"/><path d="m14.334 33.126v28.788l23.79 13.813v-28.787z" fill="#ffd7e5"/><path d="m85.705 75.734v28.787l23.789-13.813v-28.788z" fill="#6dc9f7"/><path d="m38.126 75.727v28.788l23.789 13.814v-28.788z" fill="#ffd7e5"/><path d="m61.915 89.541v28.788l23.79-13.814v-28.788z" fill="#6dc9f7"/><path d="m85.703 19.311-23.789 13.814 23.789 13.814 23.79-13.814z" fill="#fa759e"/><path d="m85.705 46.947v28.787l23.789-13.813v-28.788z" fill="#6dc9f7"/><path d="m85.705 46.947v3.102l23.789-13.813v-3.103z" fill="#fff"/><path d="m61.914 33.125-23.79 13.814 23.79 13.814 23.789-13.814z" fill="#fa759e"/><path d="m38.124 46.939v28.787l23.79 13.814v-28.787z" fill="#ffd7e5"/><path d="m61.915 60.747v28.787l23.79-13.813v-28.788z" fill="#6dc9f7"/><path d="m61.915 60.747v3l23.79-13.814v-3z" fill="#fff"/><g fill="#3a2c60"><path d="m47.473 14.885c.171 0 .343-.043.501-.135l2.546-1.479c.478-.277.641-.889.363-1.367-.279-.478-.892-.64-1.367-.362l-2.546 1.479c-.478.277-.641.889-.363 1.367.187.319.522.497.866.497z"/><path d="m110.493 33.125c0-.357-.189-.686-.498-.865l-23.79-13.814c-.006-.003-.012-.004-.018-.007l-23.771-13.804c-.311-.181-.693-.181-1.004 0l-8.672 5.036c-.478.277-.641.889-.363 1.367s.89.642 1.367.363l8.17-4.744 21.795 12.656-21.796 12.656-21.796-12.656 4.525-2.627c.478-.277.641-.889.363-1.367-.278-.479-.891-.641-1.367-.363l-6.004 3.486c-.004.002-.008.003-.012.005l-23.785 13.812s-.001 0-.001.001c0 0-.001.001-.001.001l-.002.001c-.039.022-.069.053-.104.08-.034.026-.072.049-.102.079-.055.056-.102.119-.142.185-.004.007-.011.013-.015.02-.037.065-.064.135-.086.206-.004.011-.011.021-.014.033-.023.084-.035.172-.035.261v28.788c0 .003.001.005.001.007v28.782c0 .356.189.686.498.865l23.79 13.814c.003.002.006.002.009.004l23.78 13.808h.001c.001 0 .001.001.002.002.053.031.11.049.167.069.026.009.049.024.075.031.084.022.171.034.257.034s.173-.011.257-.034c.026-.007.05-.022.075-.031.057-.02.114-.038.167-.069.001 0 .001-.001.002-.002h.001l23.754-13.793c.011-.006.024-.008.036-.015l23.789-13.813c.309-.179.498-.508.498-.865v-28.787-28.788c0-.003-.001-.005-.001-.008zm-95.158 1.738 8.427 4.894 13.362 7.759v26.475l-21.789-12.653zm21.791 67.917-21.79-12.653v-26.475l21.79 12.653zm-20.8-69.654 21.796-12.657 21.798 12.657-21.797 12.657zm22.798 15.549 6.443 3.741 15.347 8.912v26.475l-21.79-12.653zm21.791 67.917-21.789-12.652v-26.476l21.789 12.652zm.994-56.998-21.793-12.655 21.798-12.657 21.793 12.655zm22.796 44.346-21.79 12.652v-26.475l21.79-12.652zm0-28.795-21.79 12.652v-26.47l21.79-12.653zm.998-29.363-21.796-12.656 21.798-12.657 21.796 12.656zm22.791 44.35-21.789 12.652v-26.474l21.789-12.653zm0-28.788-21.789 12.653v-26.474l21.789-12.653z"/></g></svg>